<?xml version="1.0" standalone="no"?>
<!DOCTYPE svg PUBLIC "-//W3C//DTD SVG 20010904//EN"
 "http://www.w3.org/TR/2001/REC-SVG-20010904/DTD/svg10.dtd">
<svg version="1.0" xmlns="http://www.w3.org/2000/svg"
 width="337.000000pt" height="332.000000pt" viewBox="0 0 337.000000 332.000000"
 preserveAspectRatio="xMidYMid meet">

<g transform="translate(0.000000,332.000000) scale(0.100000,-0.100000)"
fill="#000000" stroke="none">
<path d="M1465 3205 c-284 -47 -534 -158 -759 -338 -273 -218 -475 -561 -542
-922 -28 -147 -26 -432 4 -571 12 -56 29 -124 38 -152 l17 -52 282 0 c320 0
290 -8 352 95 24 40 28 54 19 68 -9 16 -5 24 29 54 22 19 67 48 100 65 33 17
86 48 117 69 32 22 62 39 67 39 5 0 12 12 15 26 9 32 58 54 128 55 29 0 62 4
72 8 17 6 13 11 -25 29 -24 12 -69 27 -99 35 -45 11 -58 19 -70 45 -8 17 -24
33 -36 36 -29 8 -64 63 -123 200 -51 116 -104 210 -144 253 -18 20 -18 23 -3
29 9 3 23 4 31 0 8 -3 15 -3 15 0 0 9 -41 66 -77 107 -38 42 -45 74 -14 57 30
-16 33 -13 29 30 -2 22 0 40 4 40 28 0 69 -88 93 -198 5 -26 10 -31 20 -22 30
25 81 -59 121 -202 29 -101 51 -151 92 -207 24 -31 33 -36 70 -37 31 -1 55 -9
88 -32 24 -18 46 -32 48 -32 12 0 12 41 0 48 -17 10 -43 76 -44 112 0 38 -24
109 -59 177 -29 59 -32 62 -83 73 -67 14 -92 30 -125 83 -14 23 -45 59 -67 80
-33 30 -37 37 -21 37 35 -1 68 -26 109 -86 29 -41 52 -63 79 -73 21 -7 39 -12
42 -9 2 2 0 22 -6 43 -22 79 6 164 83 256 22 26 50 76 63 111 23 62 23 63 34
35 6 -16 11 -36 11 -45 0 -27 38 -81 65 -94 14 -6 25 -15 25 -20 0 -5 -20 -21
-45 -36 -60 -35 -90 -94 -81 -156 9 -60 37 -82 126 -102 143 -32 364 -12 417
38 57 54 30 176 -49 220 -51 28 -56 41 -23 56 32 15 61 62 69 112 9 58 23 57
40 -4 11 -36 35 -78 71 -123 64 -80 90 -146 82 -212 -3 -25 -9 -54 -13 -64 -6
-16 -3 -17 22 -11 46 10 69 29 104 84 32 50 72 80 107 80 13 0 7 -10 -24 -38
-23 -20 -53 -56 -67 -79 -32 -53 -57 -69 -125 -84 l-53 -11 -34 -72 c-19 -39
-42 -111 -52 -159 -11 -51 -27 -97 -39 -110 -16 -18 -21 -57 -8 -57 3 0 25 14
49 32 33 23 57 31 88 32 41 1 44 3 86 66 23 35 50 89 58 120 33 117 56 178 81
218 29 45 52 60 63 41 4 -6 13 13 20 42 21 91 50 156 74 172 l23 16 -5 -45
c-5 -47 -2 -50 29 -34 35 19 21 -13 -36 -86 -45 -56 -52 -70 -38 -72 44 -8 47
-12 26 -35 -44 -49 -86 -122 -138 -241 -64 -148 -99 -204 -131 -212 -13 -4
-24 -12 -24 -18 0 -27 -28 -47 -85 -62 -33 -9 -77 -25 -98 -37 -32 -18 -35
-22 -20 -28 10 -4 45 -8 78 -8 71 -1 105 -16 123 -54 7 -15 17 -27 22 -27 5 0
21 -11 37 -24 16 -13 71 -47 123 -76 118 -63 153 -95 145 -130 -4 -19 5 -42
37 -90 l43 -65 286 -3 286 -2 17 51 c9 29 26 97 38 153 30 139 32 424 4 571
-117 630 -597 1117 -1225 1246 -130 27 -402 34 -526 14z"/>
<path d="M1411 2544 c0 -5 -19 -40 -41 -77 -43 -71 -54 -101 -17 -46 12 19 44
46 71 60 46 25 47 27 23 33 -14 3 -28 14 -30 24 -3 9 -5 12 -6 6z"/>
<path d="M1952 2529 c-7 -10 -20 -19 -30 -19 -9 0 5 -13 33 -28 27 -15 60 -42
72 -61 13 -19 23 -30 23 -25 0 5 -8 20 -17 34 -9 13 -29 45 -43 71 -24 44 -27
47 -38 28z"/>
<path d="M997 2243 c-4 -6 3 -19 16 -29 12 -11 17 -12 11 -4 -6 8 -13 22 -16
30 -3 9 -7 10 -11 3z"/>
<path d="M2361 2223 c-13 -27 -13 -28 8 -9 11 10 18 23 15 27 -8 13 -10 12
-23 -18z"/>
<path d="M2296 2085 c-9 -26 -7 -32 5 -12 6 10 9 21 6 23 -2 3 -7 -2 -11 -11z"/>
<path d="M1468 2023 c12 -16 27 -34 34 -40 24 -19 86 -34 113 -27 26 6 23 8
-29 25 -32 9 -76 29 -98 44 l-41 27 21 -29z"/>
<path d="M1895 2027 c-16 -12 -59 -32 -95 -44 -63 -22 -61 -28 10 -24 43 3 71
20 100 61 25 36 24 36 -15 7z"/>
<path d="M1635 1810 c-3 -6 1 -7 9 -4 18 7 21 14 7 14 -6 0 -13 -4 -16 -10z"/>
<path d="M1720 1816 c0 -2 7 -7 16 -10 8 -3 12 -2 9 4 -6 10 -25 14 -25 6z"/>
<path d="M1910 1786 c0 -8 4 -17 9 -20 5 -4 7 3 4 14 -6 23 -13 26 -13 6z"/>
<path d="M1480 1651 c0 -23 54 -39 100 -31 58 12 163 12 220 0 48 -9 90 3 98
28 3 11 0 12 -16 3 -15 -8 -34 -8 -64 -1 -57 13 -213 13 -260 0 -27 -8 -44 -8
-58 0 -13 7 -20 7 -20 1z"/>
<path d="M1293 1578 c-13 -6 -23 -15 -23 -20 0 -11 33 -2 70 18 l25 13 -25 0
c-14 0 -35 -5 -47 -11z"/>
<path d="M2040 1576 c37 -20 70 -29 70 -18 0 12 -46 32 -73 32 -21 -1 -21 -1
3 -14z"/>
<path d="M1640 1563 c0 -5 11 -21 25 -38 l25 -30 25 30 c14 17 25 33 25 38 0
4 -22 7 -50 7 -27 0 -50 -3 -50 -7z"/>
<path d="M1350 1505 c-78 -46 -99 -52 -117 -34 -7 7 -19 2 -40 -18 -40 -38
-161 -135 -187 -150 -12 -7 -35 -12 -51 -13 -27 0 -34 -7 -63 -60 l-34 -60
184 2 c182 3 183 3 184 25 1 26 43 90 79 121 14 12 25 29 25 39 0 9 7 43 16
75 14 48 24 64 57 88 60 44 33 36 -53 -15z"/>
<path d="M1977 1520 c33 -24 43 -40 57 -88 9 -32 16 -66 16 -75 0 -10 11 -27
25 -39 36 -31 78 -95 79 -121 1 -22 2 -22 183 -25 l183 -2 -33 60 c-28 52 -36
60 -62 60 -16 0 -42 8 -56 18 -42 27 -183 142 -196 159 -10 13 -15 14 -28 3
-21 -17 -54 -7 -126 40 -72 47 -101 54 -42 10z"/>
<path d="M1441 1284 c-11 -56 -15 -121 -7 -113 6 6 27 161 23 166 -2 2 -9 -22
-16 -53z"/>
<path d="M1926 1295 c12 -95 24 -136 18 -61 -3 38 -10 79 -15 90 -6 14 -7 4
-3 -29z"/>
<path d="M1043 955 c-58 -25 -82 -119 -48 -185 21 -41 78 -57 126 -37 88 36
91 186 5 222 -42 18 -43 18 -83 0z m85 -37 c28 -31 36 -70 22 -113 -20 -61
-83 -75 -120 -27 -18 22 -21 36 -17 76 7 79 69 113 115 64z"/>
<path d="M1472 958 c-9 -11 -92 -214 -92 -225 0 -2 6 -3 13 -3 7 0 18 14 24
30 10 27 15 30 56 30 41 0 46 -3 56 -30 5 -17 17 -30 26 -30 19 0 19 0 -35
143 -28 76 -39 95 -48 85z m23 -101 l15 -37 -35 0 c-23 0 -33 4 -30 13 28 80
27 79 50 24z"/>
<path d="M1883 963 c-30 -6 -71 -56 -79 -98 -7 -41 9 -96 37 -121 32 -29 103
-24 137 9 20 21 27 38 30 85 4 54 2 62 -24 90 -30 31 -62 42 -101 35z m76 -49
c44 -56 14 -164 -45 -164 -39 0 -61 17 -74 55 -32 96 62 182 119 109z"/>
<path d="M2090 957 c-20 -10 -26 -21 -28 -54 -3 -40 -1 -43 43 -69 39 -22 46
-31 43 -53 -2 -20 -9 -27 -31 -29 -16 -2 -34 1 -41 8 -10 8 -15 7 -19 -4 -8
-19 42 -39 76 -31 36 9 49 28 45 67 -2 25 -13 39 -45 63 -23 16 -44 36 -47 44
-11 24 15 43 51 38 18 -3 35 -2 38 3 12 20 -53 33 -85 17z"/>
<path d="M2482 958 c-9 -11 -92 -214 -92 -225 0 -2 6 -3 13 -3 7 0 18 14 24
30 10 27 15 30 56 30 41 0 46 -3 56 -30 5 -17 17 -30 26 -30 19 0 19 0 -35
143 -28 76 -39 95 -48 85z m23 -101 l15 -37 -35 0 c-23 0 -33 4 -30 13 28 80
27 79 50 24z"/>
<path d="M784 944 c3 -9 6 -60 6 -115 0 -59 4 -99 10 -99 6 0 10 18 10 39 0
59 18 61 63 8 21 -26 45 -47 53 -47 20 0 18 7 -16 51 l-31 38 21 21 c26 26 26
74 0 100 -26 26 -126 30 -116 4z m94 -26 c30 -25 1 -78 -44 -78 -22 0 -24 4
-24 43 0 24 3 47 7 50 8 8 42 -1 61 -15z"/>
<path d="M1244 944 c3 -9 6 -60 6 -115 l0 -99 55 0 c30 0 55 5 55 10 0 6 -20
10 -45 10 l-45 0 0 105 c0 90 -2 105 -16 105 -11 0 -14 -5 -10 -16z"/>
<path d="M1620 845 l0 -115 48 0 c61 0 92 21 92 62 0 17 -7 39 -15 48 -13 14
-14 22 -4 43 10 22 9 31 -5 52 -14 21 -24 25 -66 25 l-50 0 0 -115z m81 85
c17 -10 26 -49 14 -62 -3 -2 -18 -3 -35 0 -27 4 -30 8 -30 38 0 36 14 43 51
24z m17 -102 c31 -31 3 -78 -47 -78 -18 0 -21 6 -21 45 0 43 1 45 28 45 15 0
33 -5 40 -12z"/>
<path d="M2210 951 c0 -6 17 -11 38 -13 l37 -3 3 -102 c1 -57 7 -103 12 -103
5 0 11 46 12 103 l3 102 38 3 c73 6 35 22 -53 22 -49 0 -90 -4 -90 -9z"/>
<path d="M689 490 c119 -108 327 -226 506 -286 397 -132 821 -102 1196 87 118
59 283 172 333 228 l19 21 -1054 0 -1054 -1 54 -49z"/>
</g>
</svg>
